<svg width="354" height="278" viewBox="0 0 354 278" fill="none" xmlns="http://www.w3.org/2000/svg">
<path d="M353.496 245.51H0V245.687H353.496V245.51Z" fill="#EBEBEB"/>
<path d="M55.1453 252.24H37.0888V252.417H55.1453V252.24Z" fill="#EBEBEB"/>
<path d="M186.646 250.324H108.919V250.501H186.646V250.324Z" fill="#EBEBEB"/>
<path d="M120.189 254.545H68.8115V254.722H120.189V254.545Z" fill="#EBEBEB"/>
<path d="M318.083 257.621H250.035V257.797H318.083V257.621Z" fill="#EBEBEB"/>
<path d="M243.735 257.621H239.26V257.797H243.735V257.621Z" fill="#EBEBEB"/>
<path d="M262.216 254.637H212.96V254.814H262.216V254.637Z" fill="#EBEBEB"/>
<path d="M89.2648 113.324L274.645 113.324V30.2945L89.2648 30.2945V113.324Z" fill="#E6E6E6"/>
<path d="M85.3551 113.324L272.821 113.324V30.2945L85.3551 30.2945V113.324Z" fill="#F0F0F0"/>
<path d="M89.2648 116.13L274.645 116.13V113.317L89.2648 113.317V116.13Z" fill="#E6E6E6"/>
<path d="M78.8508 116.13L266.317 116.13V113.317L78.8508 113.317V116.13Z" fill="#F0F0F0"/>
<path d="M267.356 107.859V35.7596L90.8272 35.7596V107.859L267.356 107.859Z" fill="#FAFAFA"/>
<path d="M219.669 107.859L187.593 35.7596H154.76L186.844 107.859H219.669Z" fill="white"/>
<path d="M264.825 95.8044C264.928 95.8044 265.027 95.7634 265.1 95.6905C265.173 95.6176 265.214 95.5187 265.214 95.4155V39.3157C265.214 39.212 265.173 39.1123 265.1 39.0383C265.028 38.9642 264.929 38.9217 264.825 38.9198C264.773 38.9198 264.722 38.9301 264.674 38.9501C264.627 38.9701 264.584 38.9993 264.547 39.0362C264.511 39.0731 264.483 39.1168 264.464 39.1648C264.445 39.2128 264.435 39.2641 264.436 39.3157V95.4155C264.435 95.4669 264.445 95.5179 264.464 95.5655C264.483 95.6131 264.512 95.6563 264.548 95.6926C264.584 95.7289 264.627 95.7575 264.675 95.7767C264.723 95.7959 264.774 95.8053 264.825 95.8044Z" fill="#F0F0F0"/>
<path d="M174.5 107.859L142.416 35.7596H131.062L163.138 107.859H174.5Z" fill="white"/>
<path d="M91.5201 107.852V35.7525H90.8272V107.852H91.5201Z" fill="#E6E6E6"/>
<g opacity="0.5">
<path d="M84.0613 43.2608H269.449L269.951 37.8806H84.5633L84.0613 43.2608Z" fill="#E6E6E6"/>
<path d="M84.0613 52.1547H269.449L269.951 46.7674H84.5633L84.0613 52.1547Z" fill="#E6E6E6"/>
<path d="M84.0613 61.0416H269.449L269.951 55.6614H84.5633L84.0613 61.0416Z" fill="#E6E6E6"/>
<path d="M84.0613 69.9356H269.449L269.951 64.5483H84.5633L84.0613 69.9356Z" fill="#E6E6E6"/>
<path d="M84.0613 78.8224H269.449L269.951 73.4352H84.5633L84.0613 78.8224Z" fill="#E6E6E6"/>
<path d="M84.0613 87.7093H269.449L269.951 82.3291H84.5633L84.0613 87.7093Z" fill="#E6E6E6"/>
</g>
<path d="M279.445 242.081H297.757V169.388H279.445V242.081Z" fill="#F0F0F0"/>
<path d="M207.834 245.51H294.236V242.081H207.834V245.51Z" fill="#F0F0F0"/>
<path d="M279.446 169.388H204.321V242.081H279.446V169.388Z" fill="#F5F5F5"/>
<path d="M272.234 214.904H211.518C211.479 214.904 211.441 214.896 211.405 214.881C211.37 214.866 211.337 214.844 211.31 214.817C211.283 214.789 211.262 214.756 211.248 214.72C211.234 214.684 211.227 214.646 211.228 214.607V196.855C211.227 196.816 211.234 196.778 211.248 196.742C211.262 196.706 211.283 196.673 211.31 196.645C211.337 196.617 211.37 196.595 211.405 196.58C211.441 196.565 211.479 196.558 211.518 196.558H235.046C235.102 196.558 235.157 196.573 235.204 196.603C235.251 196.633 235.289 196.675 235.314 196.725C235.338 196.775 235.348 196.831 235.342 196.887C235.336 196.942 235.314 196.995 235.28 197.038C235.157 197.193 235.09 197.385 235.089 197.583C235.092 197.707 235.119 197.829 235.169 197.943C235.219 198.056 235.292 198.159 235.382 198.244C235.472 198.33 235.578 198.396 235.694 198.441C235.81 198.485 235.933 198.506 236.057 198.502H247.702C247.826 198.506 247.949 198.485 248.065 198.441C248.181 198.396 248.287 198.33 248.377 198.244C248.467 198.159 248.54 198.056 248.59 197.943C248.64 197.829 248.667 197.707 248.67 197.583C248.669 197.385 248.602 197.193 248.479 197.038C248.445 196.995 248.423 196.942 248.417 196.887C248.411 196.831 248.421 196.775 248.445 196.725C248.47 196.675 248.508 196.633 248.555 196.603C248.602 196.573 248.657 196.558 248.713 196.558H272.234C272.313 196.558 272.388 196.589 272.444 196.645C272.5 196.7 272.531 196.776 272.531 196.855V214.607C272.531 214.686 272.5 214.762 272.444 214.817C272.388 214.873 272.313 214.904 272.234 214.904ZM211.815 214.31H271.909V197.152H249.2C249.243 197.291 249.264 197.437 249.264 197.583C249.257 197.99 249.088 198.378 248.795 198.662C248.502 198.946 248.109 199.102 247.702 199.096H236.057C235.65 199.102 235.257 198.946 234.964 198.662C234.671 198.378 234.502 197.99 234.495 197.583C234.495 197.437 234.516 197.291 234.559 197.152H211.815V214.31Z" fill="white"/>
<path d="M272.234 235.895H211.518C211.479 235.895 211.441 235.887 211.405 235.872C211.37 235.857 211.337 235.835 211.31 235.807C211.283 235.78 211.262 235.747 211.248 235.711C211.234 235.675 211.227 235.636 211.228 235.598V217.845C211.227 217.807 211.234 217.768 211.248 217.732C211.262 217.696 211.283 217.663 211.31 217.636C211.337 217.608 211.37 217.586 211.405 217.571C211.441 217.556 211.479 217.548 211.518 217.548H235.053C235.109 217.55 235.164 217.566 235.211 217.596C235.258 217.626 235.297 217.668 235.322 217.718C235.345 217.77 235.354 217.827 235.346 217.883C235.339 217.939 235.316 217.992 235.28 218.036C235.154 218.187 235.086 218.377 235.089 218.573C235.092 218.698 235.119 218.821 235.169 218.934C235.219 219.048 235.291 219.151 235.381 219.237C235.471 219.323 235.577 219.391 235.693 219.436C235.809 219.481 235.933 219.502 236.057 219.5H247.702C247.826 219.502 247.95 219.481 248.066 219.436C248.182 219.391 248.288 219.323 248.378 219.237C248.468 219.151 248.54 219.048 248.59 218.934C248.64 218.821 248.667 218.698 248.67 218.573C248.669 218.378 248.602 218.188 248.479 218.036C248.442 217.993 248.418 217.94 248.41 217.883C248.402 217.827 248.412 217.769 248.437 217.718C248.462 217.668 248.501 217.626 248.548 217.596C248.595 217.566 248.65 217.55 248.705 217.548H272.234C272.313 217.548 272.388 217.58 272.444 217.635C272.5 217.691 272.531 217.767 272.531 217.845V235.598C272.531 235.677 272.5 235.752 272.444 235.808C272.388 235.863 272.313 235.895 272.234 235.895ZM211.815 235.329H271.909V218.142H249.2C249.243 218.282 249.264 218.427 249.264 218.573C249.261 218.776 249.219 218.976 249.139 219.162C249.059 219.348 248.943 219.516 248.798 219.657C248.653 219.798 248.481 219.909 248.293 219.984C248.105 220.059 247.904 220.096 247.702 220.094H236.057C235.855 220.096 235.654 220.059 235.466 219.984C235.278 219.909 235.106 219.798 234.961 219.657C234.816 219.516 234.7 219.348 234.62 219.162C234.54 218.976 234.498 218.776 234.495 218.573C234.495 218.427 234.516 218.282 234.559 218.142H211.815V235.329Z" fill="white"/>
<path d="M272.234 193.914H211.518C211.479 193.914 211.441 193.906 211.405 193.891C211.37 193.876 211.337 193.854 211.31 193.826C211.283 193.799 211.262 193.766 211.248 193.73C211.234 193.694 211.227 193.655 211.228 193.617V175.864C211.227 175.825 211.234 175.787 211.248 175.751C211.262 175.715 211.283 175.682 211.31 175.655C211.337 175.627 211.37 175.605 211.405 175.59C211.441 175.575 211.479 175.567 211.518 175.567H235.046C235.102 175.569 235.157 175.585 235.204 175.615C235.251 175.645 235.29 175.687 235.315 175.737C235.344 175.785 235.36 175.84 235.36 175.896C235.36 175.952 235.344 176.007 235.315 176.055C235.189 176.206 235.122 176.396 235.124 176.592C235.127 176.716 235.154 176.839 235.204 176.952C235.255 177.066 235.327 177.168 235.417 177.254C235.507 177.339 235.613 177.406 235.729 177.45C235.845 177.494 235.969 177.515 236.093 177.511H247.737C247.861 177.515 247.985 177.494 248.101 177.45C248.217 177.406 248.323 177.339 248.413 177.254C248.503 177.168 248.575 177.066 248.625 176.952C248.675 176.839 248.703 176.716 248.705 176.592C248.708 176.396 248.64 176.206 248.515 176.055C248.485 176.007 248.47 175.952 248.47 175.896C248.47 175.84 248.485 175.785 248.515 175.737C248.54 175.687 248.578 175.645 248.626 175.615C248.673 175.585 248.727 175.569 248.783 175.567H272.305C272.344 175.567 272.382 175.575 272.419 175.59C272.455 175.605 272.487 175.627 272.515 175.654C272.542 175.682 272.564 175.714 272.579 175.75C272.594 175.787 272.602 175.825 272.602 175.864V193.617C272.605 193.663 272.596 193.709 272.578 193.751C272.559 193.794 272.531 193.831 272.495 193.86C272.459 193.889 272.416 193.909 272.371 193.918C272.326 193.928 272.279 193.926 272.234 193.914ZM211.815 193.32H271.909V176.161H249.2C249.243 176.301 249.264 176.446 249.264 176.592C249.257 177 249.088 177.388 248.795 177.671C248.502 177.955 248.109 178.111 247.702 178.105H236.057C235.65 178.111 235.257 177.955 234.964 177.671C234.671 177.388 234.502 177 234.495 176.592C234.495 176.446 234.516 176.301 234.559 176.161H211.815V193.32Z" fill="white"/>
<path d="M201.881 169.388H279.445V163.421H201.881V169.388Z" fill="#F0F0F0"/>
<path d="M300.309 163.421H279.438V169.388H300.309V163.421Z" fill="#E6E6E6"/>
<path d="M34.4941 245.503H63.8555L63.8555 146.892H34.4941L34.4941 245.503Z" fill="#F5F5F5"/>
<path d="M34.5012 245.503H39.3441L39.3441 146.892H34.5012L34.5012 245.503Z" fill="#F0F0F0"/>
<path d="M170.802 150.151H59.3307V174.825H170.802V150.151Z" fill="#E6E6E6"/>
<path d="M170.802 182.213H59.3307V187.911H170.802V182.213Z" fill="#E6E6E6"/>
<path d="M164.291 146.899H34.5012V155.467H164.291V146.899Z" fill="#F0F0F0"/>
<path d="M164.291 245.503H193.645V146.892H164.291V245.503Z" fill="#F5F5F5"/>
<path d="M164.284 245.503H169.127V146.892H164.284V245.503Z" fill="#F0F0F0"/>
<path d="M176.748 277.438C252.454 277.438 313.827 273.854 313.827 269.434C313.827 265.014 252.454 261.431 176.748 261.431C101.041 261.431 39.6693 265.014 39.6693 269.434C39.6693 273.854 101.041 277.438 176.748 277.438Z" fill="#F5F5F5"/>
<path d="M132.207 81.912C130.942 83.1146 129.439 84.0393 127.796 84.6268C127.707 82.8256 127.396 81.0423 126.87 79.3173C126.87 79.3173 127.011 83.1704 125.915 85.2914C124.358 85.7853 122.771 86.182 121.164 86.4792C121.065 85.9993 120.933 85.5268 120.768 85.0652C120.718 85.5889 120.612 86.1057 120.45 86.6064C115.098 87.5821 107.724 89.1728 101.057 88.0204C96.9922 82.7887 101.248 78.9214 101.665 75.8319C102.21 71.7879 98.4203 70.8405 98.8798 67.5601C99.3394 64.2796 103.009 66.2733 104.854 62.5616C107.3 57.6127 112.673 54.6787 117.368 55.6048C123.582 56.8421 121.44 66.1532 126.24 69.1437C131.041 72.1343 133.423 77.2953 132.207 81.912Z" fill="#263238"/>
<path d="M132.101 83.1351H132.045C132.023 83.1279 132.003 83.1165 131.986 83.1016C131.969 83.0866 131.955 83.0684 131.945 83.0479C131.936 83.0275 131.93 83.0053 131.929 82.9826C131.928 82.9599 131.931 82.9373 131.939 82.9159C133.247 79.1123 133.862 74.2199 126.912 70.0982C124.346 68.5711 123.632 65.8209 122.932 63.1626C121.991 59.564 121.115 56.1704 115.692 56.2482C115.648 56.2449 115.607 56.226 115.576 56.1949C115.545 56.1637 115.526 56.1224 115.522 56.0785C115.52 56.0554 115.523 56.0321 115.531 56.0102C115.539 55.9883 115.551 55.9683 115.567 55.9516C115.583 55.9348 115.603 55.9217 115.624 55.9131C115.646 55.9045 115.669 55.9007 115.692 55.9018C121.348 55.824 122.338 59.5074 123.271 63.0707C123.943 65.6653 124.65 68.3448 127.089 69.8012C134.335 74.0997 133.508 79.4092 132.264 83.029C132.25 83.0607 132.227 83.0875 132.199 83.1064C132.17 83.1252 132.136 83.1352 132.101 83.1351Z" fill="#263238"/>
<path d="M124.431 128.8C124.431 128.8 124.148 163.372 121.984 191.771C117.297 219.881 113.189 258.469 113.189 258.469H108.707C108.707 258.469 104.189 207.262 109.174 190.789C106.218 169.664 107.137 129.372 107.137 129.372L124.431 128.8Z" fill="#B55B52"/>
<path d="M130.348 98.3213C130.348 98.6465 130.348 99.1272 130.348 99.5373L130.405 100.831C130.454 101.701 130.532 102.57 130.631 103.426C130.814 105.133 131.111 106.827 131.522 108.495C131.915 110.086 132.465 111.635 133.162 113.119C133.804 114.488 134.674 115.739 135.735 116.816L135.997 117.078C135.877 116.955 135.721 116.874 135.551 116.844C135.467 116.844 135.551 116.887 135.771 116.88C136.355 116.818 136.926 116.67 137.467 116.441C138.912 115.855 140.302 115.146 141.625 114.32C143.039 113.479 144.41 112.546 145.789 111.584C147.167 110.623 148.553 109.619 149.889 108.629C150.212 108.389 150.612 108.277 151.012 108.313C151.412 108.349 151.785 108.532 152.059 108.826C152.333 109.12 152.489 109.505 152.497 109.907C152.505 110.309 152.364 110.7 152.102 111.005C150.929 112.376 149.705 113.613 148.44 114.858C147.174 116.102 145.838 117.269 144.417 118.393C142.948 119.578 141.366 120.618 139.694 121.496C138.686 122.015 137.607 122.384 136.492 122.592C135.714 122.733 134.917 122.718 134.145 122.55C133.128 122.324 132.206 121.788 131.507 121.016L131.776 121.284C130.074 119.818 128.656 118.052 127.591 116.074C126.582 114.22 125.792 112.256 125.236 110.22C124.688 108.262 124.288 106.265 124.042 104.246C123.921 103.249 123.837 102.245 123.78 101.241C123.78 100.739 123.731 100.237 123.724 99.7282C123.716 99.2191 123.724 98.7455 123.724 98.1374C123.776 97.2927 124.153 96.501 124.776 95.9277C125.399 95.3545 126.219 95.0441 127.065 95.0615C127.911 95.0788 128.718 95.4225 129.316 96.0208C129.915 96.6191 130.259 97.4256 130.277 98.2718L130.348 98.3213Z" fill="#B55B52"/>
<path d="M156.768 108.587L156.592 105.865C156.577 105.65 156.517 105.441 156.417 105.25C156.316 105.06 156.177 104.893 156.007 104.759C155.838 104.626 155.643 104.53 155.434 104.477C155.226 104.424 155.008 104.415 154.796 104.451C153.439 104.68 152.196 105.351 151.261 106.36L148.291 109.541L147.754 112.511C150.144 113.684 153.488 111.28 153.488 111.28L155.927 110.079C156.199 109.941 156.424 109.726 156.574 109.46C156.724 109.195 156.791 108.891 156.768 108.587Z" fill="#B55B52"/>
<path d="M128.199 93.3228C132.886 97.0911 132.172 101.248 133.211 104.317C131.041 107.993 122.458 109.725 122.458 109.725C122.458 109.725 123.144 89.2576 128.199 93.3228Z" fill="#FF4040"/>
<path d="M130.277 97.4658C130.984 107.116 125.123 114.434 124.621 124.607L100.258 124.013C100.965 114.115 100.669 115.091 97.1901 95.9246C97.0937 95.3956 97.1068 94.8524 97.2287 94.3287C97.3506 93.805 97.5786 93.3119 97.8987 92.8799C98.2187 92.4478 98.6241 92.086 99.0895 91.8168C99.555 91.5477 100.071 91.3769 100.605 91.315C102.415 91.11 104.656 90.912 107.01 90.8696C110.956 90.6967 114.909 90.8078 118.838 91.2019C121.376 91.5059 124.084 91.9937 126.148 92.4037C128.573 92.8633 130.086 94.9913 130.277 97.4658Z" fill="#FF4040"/>
<path d="M119.531 100.881C119.63 101.877 119.128 102.683 118.407 102.683C117.686 102.683 116.993 101.885 116.922 100.888C116.852 99.8908 117.325 99.0778 118.046 99.0778C118.768 99.0778 119.432 99.8837 119.531 100.881Z" fill="white"/>
<path d="M118.223 96.3771C119.863 96.7942 121.617 97.9183 122.317 100.789C127.209 93.4642 118.852 91.1807 118.852 91.1807L118.223 96.3771Z" fill="white"/>
<path d="M115.346 96.7588C114.743 96.6806 114.131 96.7221 113.545 96.8811C112.959 97.0401 112.41 97.3134 111.93 97.6852C111.449 98.0571 111.047 98.5202 110.747 99.0479C110.446 99.5757 110.253 100.158 110.178 100.76C104.811 93.7753 107.024 90.8201 107.024 90.8201L115.346 96.7588Z" fill="white"/>
<path d="M108.573 77.564C109.209 81.3888 109.76 88.381 107.024 90.8484C107.024 90.8484 111.846 96.073 117.339 97.4517C118.142 96.6454 118.708 95.6341 118.974 94.5281C119.241 93.4222 119.199 92.2642 118.852 91.1806C114.61 90.0495 114.837 86.9034 115.657 83.9693L108.573 77.564Z" fill="#B55B52"/>
<path opacity="0.2" d="M111.457 80.1799L115.657 83.9623C115.449 84.6545 115.307 85.3646 115.233 86.0832C113.614 85.8004 111.436 83.9623 111.316 82.2584C111.234 81.5628 111.282 80.858 111.457 80.1799Z" fill="black"/>
<path d="M104.083 73.3079C106.572 79.1689 107.505 81.6999 111.62 83.7007C117.806 86.7125 124.459 82.3715 123.773 75.8884C123.151 70.0487 119.185 61.4517 112.461 61.1406C110.983 61.0691 109.512 61.3761 108.186 62.0325C106.86 62.689 105.724 63.6731 104.885 64.8917C104.046 66.1103 103.532 67.5229 103.391 68.9958C103.251 70.4686 103.489 71.9529 104.083 73.3079Z" fill="#B55B52"/>
<path d="M103.327 68.6347C111.288 68.5711 122.416 64.5907 119.142 60.4265C117.467 52.1406 103.44 60.7659 103.327 68.6347Z" fill="#263238"/>
<path d="M104.529 67.2631C109.859 70.2466 108.445 76.0228 105.066 77.161C101.496 72.8766 100.605 66.5137 104.529 67.2631Z" fill="#263238"/>
<path d="M114.292 75.6834C114.292 75.6834 116.102 75.3511 121.115 75.6339C120.408 77.1681 119.269 78.3912 116.703 78.2215C116.375 78.2251 116.049 78.1608 115.746 78.0329C115.444 77.9049 115.171 77.7159 114.945 77.4777C114.718 77.2396 114.544 76.9573 114.431 76.6486C114.319 76.3398 114.272 76.0113 114.292 75.6834Z" fill="#263238"/>
<path d="M117.728 76.5813C116.745 76.4701 115.753 76.681 114.9 77.1822C115.35 77.5375 115.904 77.7361 116.477 77.7478C117.461 77.8585 118.454 77.645 119.305 77.1398C118.855 76.7852 118.301 76.5889 117.728 76.5813Z" fill="#A02724"/>
<path d="M114.533 75.648C114.533 75.945 114.674 76.1217 115.134 76.3126C116.475 76.473 117.829 76.5061 119.178 76.4116C119.832 76.3856 120.45 76.1008 120.896 75.6198C118.777 75.4602 116.649 75.4697 114.533 75.648Z" fill="white"/>
<path d="M113.684 71.5121C113.854 72 114.25 72.304 114.575 72.2191C114.9 72.1343 115.006 71.6182 114.837 71.1304C114.667 70.6425 114.264 70.3385 113.946 70.4234C113.628 70.5082 113.507 71.0243 113.684 71.5121Z" fill="#263238"/>
<path d="M119.934 69.3205C120.104 69.8083 120.507 70.1123 120.825 70.0275C121.143 69.9426 121.263 69.4265 121.086 68.9387C120.91 68.4509 120.514 68.1469 120.196 68.2317C119.877 68.3165 119.764 68.8327 119.934 69.3205Z" fill="#263238"/>
<path d="M120.068 68.3095L121.122 67.553C121.122 67.553 120.839 68.6842 120.068 68.3095Z" fill="#263238"/>
<path d="M118.152 70.5294C118.975 71.4884 119.927 72.3283 120.98 73.0251C120.795 73.2921 120.553 73.5153 120.272 73.679C119.991 73.8427 119.678 73.9428 119.354 73.9725L118.152 70.5294Z" fill="#A02724"/>
<path d="M103.928 78.978C104.342 79.4338 104.843 79.8029 105.402 80.0638C105.96 80.3247 106.564 80.4723 107.18 80.498C108.813 80.5546 109.244 79.0063 108.467 77.67C107.76 76.4682 106.084 74.9905 104.599 75.5491C104.284 75.686 104.007 75.8975 103.791 76.1654C103.576 76.4333 103.428 76.7496 103.362 77.087C103.296 77.4244 103.313 77.7728 103.412 78.1023C103.51 78.4317 103.687 78.7322 103.928 78.978Z" fill="#B55B52"/>
<path d="M110.8 70.6426C110.839 70.6333 110.875 70.6159 110.907 70.5916C110.938 70.5672 110.965 70.5364 110.984 70.5012C111.159 70.1613 111.412 69.868 111.723 69.6455C112.034 69.423 112.394 69.2777 112.772 69.2215C112.852 69.2127 112.925 69.1743 112.977 69.1141C113.029 69.0538 113.057 68.9761 113.055 68.8963C113.052 68.8563 113.042 68.8173 113.024 68.7814C113.006 68.7456 112.981 68.7136 112.951 68.6873C112.921 68.661 112.886 68.641 112.848 68.6283C112.81 68.6156 112.77 68.6106 112.73 68.6135C112.25 68.6759 111.793 68.8531 111.397 69.1301C111 69.407 110.677 69.7755 110.453 70.2042C110.415 70.2746 110.407 70.3572 110.429 70.4339C110.452 70.5107 110.504 70.5755 110.573 70.6143C110.607 70.6344 110.645 70.6474 110.684 70.6522C110.723 70.6571 110.762 70.6538 110.8 70.6426Z" fill="#263238"/>
<path d="M120.471 67.0086C120.538 66.9685 120.588 66.9058 120.613 66.8319C120.625 66.7938 120.629 66.7538 120.625 66.7141C120.621 66.6744 120.609 66.636 120.59 66.601C120.571 66.566 120.545 66.5353 120.513 66.5106C120.482 66.4859 120.446 66.4677 120.408 66.4572C119.95 66.3045 119.461 66.2652 118.985 66.3428C118.508 66.4204 118.058 66.6125 117.672 66.9026C117.614 66.9553 117.579 67.0283 117.573 67.1064C117.568 67.1845 117.593 67.2616 117.643 67.3217C117.693 67.3818 117.765 67.4203 117.842 67.4292C117.92 67.438 117.998 67.4165 118.061 67.3692C118.369 67.1443 118.728 66.9968 119.105 66.939C119.483 66.8812 119.869 66.9147 120.231 67.0369C120.271 67.0485 120.313 67.0519 120.354 67.0471C120.395 67.0422 120.435 67.0291 120.471 67.0086Z" fill="#263238"/>
<path d="M113.826 70.5011L114.872 69.7447C114.872 69.7447 114.589 70.8759 113.826 70.5011Z" fill="#263238"/>
<path d="M117.912 129.634C117.912 129.634 113.373 164.984 106.049 192.91C96.0519 214.183 84.2805 230.614 72.2121 248.055L67.9702 245.793C76.249 227.001 85.1076 204.745 93.4926 190.096C99.5586 136.775 98.8869 129.655 98.8869 129.655L117.912 129.634Z" fill="#B55B52"/>
<path d="M75.1532 262.195C74.8845 261.057 72.5939 258.059 72.5939 258.059C72.5939 258.059 71.8869 253.994 73.9655 246.5C73.9904 246.412 73.9903 246.319 73.9653 246.232C73.9404 246.145 73.8914 246.066 73.8241 246.005L69.6669 242.244C69.5479 242.144 69.3951 242.093 69.24 242.102C69.0848 242.111 68.9391 242.18 68.8327 242.293C68.4792 242.661 67.3339 244.697 66.9238 245.319C66.5138 245.941 65.9058 246.846 65.5098 247.44C64.0959 249.674 61.077 254.786 61.077 254.786L61.6214 255.075C62.6211 253.561 63.7094 252.107 64.8806 250.72C66.1108 249.412 66.0542 251.717 65.5876 253.69C65.121 255.662 66.3794 258.738 69.8295 260.76C73.9301 263.043 75.436 263.361 75.1532 262.195Z" fill="#263238"/>
<path d="M124.636 124.586C129.797 140.903 125.873 157.468 123.42 188.745C112.108 190.449 101.976 188.745 90.3323 185.211C97.8123 149.309 88.586 140.359 100.273 123.992L124.636 124.586Z" fill="#FF4040"/>
<path d="M99.8555 122.211C99.716 122.844 99.6215 123.487 99.5727 124.134C99.549 124.258 99.571 124.386 99.6347 124.495C99.6983 124.605 99.7994 124.687 99.9191 124.727C102.542 125.13 117.898 127.364 124.756 125.668C124.853 125.628 124.935 125.558 124.989 125.467C125.043 125.376 125.065 125.27 125.053 125.166C125.053 124.579 125.053 123.66 125.053 123.087C125.053 122.79 124.876 122.543 124.657 122.543C122.26 122.543 109.612 122.599 100.209 121.892C100.121 121.893 100.037 121.926 99.9723 121.985C99.9073 122.043 99.8658 122.124 99.8555 122.211Z" fill="#263238"/>
<path d="M112.306 121.963C113.486 121.652 120.415 121.857 121.044 122.147C121.673 122.437 121.369 126.262 120.811 126.502C119.701 126.997 113.387 126.87 112.249 126.615C111.111 126.361 111.5 122.211 112.306 121.963Z" fill="white"/>
<path opacity="0.2" d="M112.376 164.107L113.331 148.341L118.775 140.854L112.376 164.107Z" fill="black"/>
<path d="M101.736 100.294C100.796 101.453 99.7636 102.733 98.8374 103.998C97.9113 105.264 96.9568 106.551 96.1084 107.866C94.4046 110.321 93.0329 112.99 92.0291 115.805C91.9442 116.13 91.8453 116.449 91.7887 116.753L91.7392 116.951C91.7392 116.951 91.7392 116.986 91.7392 117.035C91.8084 117.5 91.9617 117.948 92.1917 118.357C92.9041 119.623 93.7502 120.808 94.7157 121.892C96.8284 124.29 99.073 126.567 101.439 128.715L101.482 128.757C101.773 129.03 101.954 129.4 101.991 129.797C102.028 130.195 101.918 130.592 101.682 130.914C101.446 131.236 101.101 131.46 100.711 131.545C100.321 131.629 99.9136 131.568 99.5656 131.373C96.5481 129.697 93.7182 127.704 91.1241 125.427C89.711 124.2 88.4569 122.802 87.3912 121.263C86.7105 120.283 86.23 119.178 85.9772 118.011C85.905 117.631 85.8671 117.245 85.8641 116.859C85.8641 116.661 85.8641 116.441 85.8641 116.222C85.8641 116.003 85.8995 115.954 85.9207 115.812C85.9843 115.296 86.0904 114.815 86.1893 114.328C86.6329 112.514 87.2631 110.751 88.0699 109.068C88.8265 107.468 89.6763 105.915 90.6151 104.416C91.5342 102.931 92.4816 101.482 93.5138 100.103C94.546 98.7243 95.5711 97.388 96.7801 96.0236C97.3536 95.3994 98.1464 95.0214 98.9925 94.9689C99.8385 94.9163 100.672 95.1934 101.318 95.7419C101.965 96.2903 102.374 97.0677 102.459 97.911C102.545 98.7543 102.301 99.5981 101.779 100.266L101.736 100.294Z" fill="#B55B52"/>
<path d="M100.909 91.2584C96.2922 91.5341 94.7793 94.1571 93.1886 96.978C94.6025 101.001 100.471 107.463 100.471 107.463C100.471 107.463 109.294 90.7635 100.909 91.2584Z" fill="#FF4040"/>
<path d="M151.445 104.861C143.59 99.6787 133.148 102.606 128.114 111.386C120.252 106.204 109.81 109.131 104.783 117.912C99.7565 126.693 102.054 138.019 109.909 143.201L138.365 161.958L156.563 130.143C161.604 121.362 159.306 110.043 151.445 104.861Z" fill="#FF4040"/>
<path opacity="0.9" d="M151.445 104.861C143.59 99.6787 133.148 102.606 128.114 111.386C120.252 106.204 109.81 109.131 104.783 117.912C99.7565 126.693 102.054 138.019 109.909 143.201L138.365 161.958L156.563 130.143C161.604 121.362 159.306 110.043 151.445 104.861Z" fill="white"/>
<path opacity="0.2" d="M111.655 140.182C110.1 139.13 108.769 137.78 107.74 136.21C106.71 134.639 106.003 132.88 105.66 131.034C104.88 127.165 105.533 123.144 107.498 119.722C109.335 116.381 112.421 113.905 116.081 112.836C117.813 112.338 119.633 112.223 121.414 112.499C123.196 112.775 124.895 113.435 126.396 114.434L129.097 116.215L130.822 113.196C132.661 109.855 135.75 107.379 139.412 106.31C141.143 105.812 142.962 105.697 144.742 105.973C146.522 106.249 148.22 106.909 149.72 107.908C156.083 112.101 157.942 121.291 153.877 128.411L137.411 157.2L111.655 140.182Z" fill="#FF4040"/>
<path d="M138.888 143.569L130.864 145.81L125.696 120.337L133.72 118.096L138.888 143.569Z" fill="#FF4040"/>
<path d="M121.426 139.588L119.658 130.892L143.159 124.317L144.919 133.013L121.426 139.588Z" fill="#FF4040"/>
<path d="M99.4242 127.584L105.518 127.732L102.316 132.632C102.316 132.632 98.6819 131.734 97.7486 129.167L99.4242 127.584Z" fill="#B55B52"/>
<path d="M108.042 131.267L106.89 133.848C106.826 134 106.729 134.136 106.607 134.247C106.484 134.357 106.338 134.439 106.18 134.486C106.022 134.534 105.855 134.545 105.692 134.52C105.528 134.495 105.373 134.435 105.236 134.342L102.316 132.632L105.518 127.732L107.682 129.726C107.889 129.917 108.034 130.167 108.098 130.441C108.162 130.716 108.143 131.004 108.042 131.267Z" fill="#B55B52"/>
<path d="M123.561 268.183C122.705 267.306 119.446 266.154 119.446 266.154C119.446 266.154 116.399 262.061 113.981 254.482C113.952 254.391 113.901 254.31 113.831 254.246C113.762 254.182 113.677 254.136 113.585 254.114L108.028 252.785C107.953 252.762 107.874 252.755 107.795 252.765C107.717 252.775 107.642 252.801 107.575 252.843C107.508 252.885 107.451 252.94 107.407 253.006C107.363 253.071 107.334 253.145 107.321 253.223C107.229 253.711 107.321 256.496 107.321 257.246C107.321 257.995 107.321 259.07 107.321 259.784C107.371 262.421 107.661 268.353 107.661 268.353H108.276C108.278 266.554 108.389 264.758 108.608 262.973C108.912 261.233 110.142 263.291 110.828 265.256C111.514 267.222 114.278 269.314 118.294 269.413C123.017 269.526 124.431 269.095 123.561 268.183Z" fill="#263238"/>
<path d="M234.276 252.608L245.093 252.707L244.683 265.475L235.647 265.398L234.276 252.608Z" fill="#FFC3BD"/>
<path opacity="0.2" d="M234.283 252.608L245.1 252.714L244.867 259.862L235.046 259.777L234.283 252.608Z" fill="black"/>
<path d="M245.757 201.775C249.533 184.984 255.782 167.253 249.2 152.187L219.167 154.81C219.167 154.81 222.144 190.548 222.943 205.65C223.777 221.352 233.972 257.578 233.972 257.578H246.344C246.344 257.578 248.253 219.16 245.757 201.775Z" fill="#263238"/>
<path d="M246.415 269.42H243.587L242.88 268.466L241.699 269.434H225.749C225.592 268.332 225.739 267.208 226.174 266.182C226.174 266.182 231.709 265.284 233.852 263.814C234.033 263.689 234.238 263.601 234.455 263.558C234.671 263.514 234.894 263.515 235.11 263.559C237.04 263.927 242.145 264.754 244.909 263.68C244.977 263.659 245.049 263.655 245.119 263.665C245.189 263.676 245.256 263.703 245.315 263.743C245.374 263.783 245.423 263.835 245.459 263.896C245.495 263.957 245.518 264.026 245.524 264.097C245.683 265.892 245.981 267.671 246.415 269.42Z" fill="#263238"/>
<path d="M280.916 245.199L291.337 242.279L295.353 254.404L286.65 256.857L280.916 245.199Z" fill="#FFC3BD"/>
<path opacity="0.2" d="M280.923 245.206L291.344 242.279L293.592 249.073L284.133 251.731L280.923 245.206Z" fill="black"/>
<path d="M279.566 198.714C278.958 182.326 277.933 157.815 271.789 150.808L238.157 153.092C238.157 153.092 250.72 187.961 255.563 202.694C260.604 218.015 282.365 249.957 282.365 249.957L293.607 246.726C293.607 246.726 285.625 216.947 279.566 198.714Z" fill="#263238"/>
<path d="M188.392 129.719L189.318 134.18C188.611 138.91 182.658 136.895 182.658 136.895L179.427 137.079C178.854 137.075 178.301 136.868 177.867 136.493C177.433 136.119 177.146 135.602 177.059 135.035L176.387 131.925C176.208 131.293 176.284 130.616 176.597 130.039C176.91 129.462 177.436 129.03 178.063 128.835L180.82 128.22C181.622 128.043 182.454 128.065 183.245 128.284L188.392 129.719Z" fill="#FFC3BD"/>
<path d="M171.438 138.705C168.951 138.7 166.536 137.862 164.58 136.324C162.625 134.786 161.241 132.637 160.65 130.221C160.583 129.947 160.628 129.658 160.775 129.417C160.921 129.177 161.157 129.004 161.431 128.938C161.705 128.871 161.994 128.916 162.234 129.062C162.475 129.209 162.648 129.445 162.714 129.719C163.277 132.039 164.738 134.041 166.776 135.284C168.815 136.527 171.264 136.909 173.584 136.347C175.904 135.784 177.906 134.323 179.149 132.285C180.392 130.246 180.775 127.797 180.212 125.477L150.893 4.20655C150.828 3.93279 150.873 3.64417 151.021 3.40419C151.168 3.16421 151.404 2.99252 151.678 2.92689C151.952 2.86127 152.24 2.90708 152.48 3.05425C152.72 3.20142 152.892 3.4379 152.958 3.71165L182.27 124.961C182.615 126.381 182.677 127.855 182.452 129.299C182.228 130.743 181.72 132.129 180.959 133.377C180.198 134.625 179.198 135.71 178.017 136.571C176.836 137.432 175.496 138.051 174.075 138.394C173.212 138.601 172.327 138.706 171.438 138.705Z" fill="#263238"/>
<path d="M76.0864 58.4964C75.7612 55.5766 80.9152 51.9497 87.9003 50.26C95.1328 48.5137 101.552 49.4964 102.273 52.4587C101.566 49.4964 108.792 45.2121 118.435 42.879C128.079 40.5459 136.449 41.055 137.156 44.0172C136.449 41.055 146.199 36.1626 158.946 33.0801C171.693 29.9976 182.63 29.8916 183.344 32.8538C182.637 29.8916 189.856 25.6072 199.499 23.2741C209.142 20.941 217.52 21.4501 218.234 24.4124C217.527 21.4501 222.801 17.6394 230.013 15.9285C236.998 14.2388 243.262 15.1013 244.301 17.8586C239.599 0.0352965 198.587 -5.35905 152.35 5.8397C106.112 17.0384 72.1131 40.4964 76.0864 58.4964Z" fill="#FF4040"/>
<path opacity="0.2" d="M102.273 52.4587C101.566 49.4964 108.792 45.2121 118.435 42.879C128.079 40.5459 136.449 41.055 137.156 44.0173C136.449 41.055 146.199 36.1626 158.946 33.0801C171.693 29.9976 182.63 29.8916 183.344 32.8539C182.637 29.8916 189.856 25.6072 199.499 23.2741C209.142 20.9411 217.52 21.4501 218.234 24.4124C213.879 6.3841 184.383 -1.9584 152.35 5.79022C120.316 13.5389 97.9113 34.4234 102.273 52.4587Z" fill="black"/>
<path d="M137.156 44.0172C136.449 41.0549 146.199 36.1626 158.946 33.0801C171.693 29.9976 182.63 29.8916 183.344 32.8538C179.003 14.8185 165.118 2.72893 152.371 5.79021C139.624 8.85148 132.815 25.9819 137.156 44.0172Z" fill="#FF4040"/>
<path d="M189.474 130.235C187.544 126.827 184.037 127.025 181.273 126.325C180.806 126.205 180.064 127.266 180.636 127.93C180.953 128.366 181.354 128.734 181.815 129.012C182.277 129.29 182.79 129.473 183.323 129.549C183.457 130.765 185.013 133.947 188.449 133.6C189.191 132.642 189.556 131.444 189.474 130.235Z" fill="#FFC3BD"/>
<path d="M238.645 102.231C237.174 104.437 235.662 106.572 234.156 108.728C232.65 110.885 231.108 113.013 229.546 115.134C226.428 119.375 223.24 123.582 219.881 127.775L218.467 129.563L217.145 130.136C216.438 130.44 215.731 130.758 215.074 131.02L213.137 131.727C211.892 132.137 210.655 132.54 209.446 132.886C207.028 133.593 204.632 134.201 202.256 134.767C199.881 135.332 197.491 135.827 195.116 136.28C192.74 136.732 190.365 137.156 187.918 137.503L185.027 126.403L198.064 121.299C200.22 120.464 202.306 119.573 204.391 118.704C205.423 118.265 206.399 117.813 207.368 117.368L208.711 116.661L209.856 116.024L207.099 118.386C209.892 114.144 212.677 109.767 215.477 105.419L219.719 98.8869C221.133 96.7235 222.547 94.5247 223.961 92.3967L238.645 102.231Z" fill="#FF4040"/>
<g opacity="0.6">
<path d="M238.645 102.231C237.174 104.437 235.662 106.572 234.156 108.728C232.65 110.885 231.108 113.013 229.546 115.134C226.428 119.375 223.24 123.582 219.881 127.775L218.467 129.563L217.145 130.136C216.438 130.44 215.731 130.758 215.074 131.02L213.137 131.727C211.892 132.137 210.655 132.54 209.446 132.886C207.028 133.593 204.632 134.201 202.256 134.767C199.881 135.332 197.491 135.827 195.116 136.28C192.74 136.732 190.365 137.156 187.918 137.503L185.027 126.403L198.064 121.299C200.22 120.464 202.306 119.573 204.391 118.704C205.423 118.265 206.399 117.813 207.368 117.368L208.711 116.661L209.856 116.024L207.099 118.386C209.892 114.144 212.677 109.767 215.477 105.419L219.719 98.8869C221.133 96.7235 222.547 94.5247 223.961 92.3967L238.645 102.231Z" fill="white"/>
</g>
<path d="M231.526 86.5287C241.409 84.677 251.467 83.9277 261.516 84.2946C262.893 84.3732 264.24 84.7322 265.474 85.3493C266.708 85.9665 267.802 86.829 268.691 87.884C269.58 88.9389 270.244 90.1642 270.643 91.4848C271.042 92.8053 271.167 94.1934 271.011 95.564C268.48 119.432 273.337 147.485 273.273 152.166C273.273 152.166 229.44 170.215 217.711 156.542C212.055 128.093 220.2 103.32 224.003 92.9623C224.6 91.3346 225.605 89.8878 226.923 88.7611C228.24 87.6344 229.825 86.8656 231.526 86.5287Z" fill="#FF4040"/>
<path d="M271.386 88.5719C269.498 86.1539 266.14 82.9725 254.878 83.5522C245.107 92.1068 238.299 103.885 238.299 103.885C238.299 103.885 232.091 95.1115 237.98 85.15C231.497 85.3268 227.255 87.3346 225.728 88.3951C224.201 89.4556 216.714 103.709 215.06 126.332C213.405 148.956 217.046 191.262 218.46 202.101C239.55 210.584 274.426 201.04 281.849 193.617C280.909 176.416 274.433 150.61 273.252 139.652C272.072 128.694 274.447 93.344 271.386 88.5719Z" fill="#FF4040"/>
<path opacity="0.7" d="M271.386 88.5719C269.498 86.1539 266.14 82.9725 254.878 83.5522C245.107 92.1068 238.299 103.885 238.299 103.885C238.299 103.885 232.091 95.1115 237.98 85.15C231.497 85.3268 227.255 87.3346 225.728 88.3951C224.201 89.4556 216.714 103.709 215.06 126.332C213.405 148.956 217.046 191.262 218.46 202.101C239.55 210.584 274.426 201.04 281.849 193.617C280.909 176.416 274.433 150.61 273.252 139.652C272.072 128.694 274.447 93.344 271.386 88.5719Z" fill="white"/>
<path d="M236.397 87.8295C236.938 86.5016 237.912 85.3954 239.161 84.6905C239.533 83.3854 239.443 81.992 238.907 80.7455L253.237 74.7148C252.481 79.6991 251.901 83.6371 253.944 85.8429C251.201 87.8719 246.167 91.5342 240.363 91.8947C234.559 92.2553 235.64 89.9576 236.397 87.8295Z" fill="#FFC3BD"/>
<path opacity="0.2" d="M239.062 81.205L250.077 79.5506C246.952 83.5664 241.826 85.4328 239.303 84.1461C239.475 83.1613 239.392 82.1488 239.062 81.205Z" fill="black"/>
<path d="M240.002 91.9089L242.215 89.6889L245.581 91.011C245.581 91.011 243.7 93.132 240.002 91.9089Z" fill="#FF4040"/>
<path opacity="0.3" d="M240.002 91.9089L242.215 89.6889L245.581 91.011C245.581 91.011 243.7 93.132 240.002 91.9089Z" fill="black"/>
<path d="M238.659 72.4949C235.768 72.0353 234.417 67.857 236.312 65.5381C238.207 63.2191 233.71 62.3283 235.202 60.0942C236.694 57.8601 240.971 55.619 243.58 57.6763C246.189 59.7337 240.264 65.8209 241.544 69.4265C240.636 70.4985 239.673 71.5226 238.659 72.4949Z" fill="#263238"/>
<path d="M255.429 66.9308C254.326 73.9513 253.428 78.6952 249.066 81.2898C240.37 86.4438 235.845 82.1312 234.827 74.9269C233.908 68.4297 235.859 58.044 243.043 55.9513C244.63 55.49 246.308 55.4383 247.92 55.8009C249.533 56.1636 251.027 56.9287 252.264 58.0251C253.501 59.1214 254.439 60.5131 254.993 62.0704C255.546 63.6277 255.696 65.2999 255.429 66.9308Z" fill="#FFC3BD"/>
<path d="M252.297 74.3684C249.575 73.3008 249.144 68.9175 251.512 67.0722C253.881 65.227 249.667 63.3747 251.611 61.5082C253.555 59.6418 259.268 57.8177 260.307 60.9638C261.94 65.9128 255.309 68.2034 255.775 72C254.658 72.8492 253.497 73.6398 252.297 74.3684Z" fill="#263238"/>
<path d="M252.99 61.2113C246.182 63.5585 247.801 58.7792 244.011 59.4438C240.222 60.1084 236.446 60.7588 235.676 57.3228C235.046 54.5514 236.885 52.0204 240.533 52.2678C238.645 53.5263 239.119 54.7777 240.978 54.1484C242.837 53.5192 247.532 48.9733 249.985 52.593C252.438 56.2128 256.659 53.4344 258.632 55.7957C260.604 58.1571 257.444 62.1162 252.99 61.2113Z" fill="#263238"/>
<path d="M236.439 80.0314C236.637 79.6909 236.906 79.3964 237.226 79.1673C237.547 78.9382 237.912 78.7797 238.299 78.7023C239.253 79.0306 240.127 79.5557 240.865 80.2435C241.218 81.9544 237.33 83.6795 236.764 83.9128C236.566 82.3857 236.439 80.0314 236.439 80.0314Z" fill="#263238"/>
<path opacity="0.2" d="M246.033 67.4257C246.436 67.2792 246.864 67.2137 247.292 67.2331C247.721 67.2525 248.141 67.3564 248.529 67.5389C247.697 67.6613 246.85 67.6229 246.033 67.4257Z" fill="black"/>
<path opacity="0.2" d="M246.033 68.0196C246.421 67.9677 246.816 68.0001 247.191 68.1148C247.565 68.2295 247.911 68.4237 248.204 68.6842C247.441 68.6204 246.701 68.3938 246.033 68.0196Z" fill="black"/>
<path opacity="0.2" d="M236.298 66.6056C236.298 66.6056 235.718 65.8986 235.287 66.2946C235.571 66.5251 235.933 66.6366 236.298 66.6056Z" fill="black"/>
<path opacity="0.2" d="M236.192 67.1571C236.192 67.1571 235.718 66.5349 235.414 67.1571C235.53 67.2331 235.665 67.2736 235.803 67.2736C235.941 67.2736 236.076 67.2331 236.192 67.1571Z" fill="black"/>
<path opacity="0.2" d="M238.419 61.1689C240.484 60.7872 242.592 60.692 244.683 60.8861C241.211 61.2113 238.419 61.1689 238.419 61.1689Z" fill="black"/>
<path opacity="0.2" d="M237.613 62.1162C237.613 62.1162 242.399 61.9466 244.796 62.8939C242.385 62.8273 239.982 62.5672 237.613 62.1162Z" fill="black"/>
<path d="M258.123 74.1987C257.63 74.929 256.998 75.5548 256.263 76.0401C255.527 76.5254 254.703 76.8607 253.838 77.0267C251.512 77.4579 250.537 75.3299 251.336 73.2372C252.043 71.3566 254.163 68.868 256.405 69.377C258.646 69.8861 259.317 72.3676 258.123 74.1987Z" fill="#FFC3BD"/>
<path d="M244.124 67.6237C244.068 68.1964 243.721 68.6276 243.347 68.5923C242.972 68.5569 242.71 68.055 242.76 67.4823C242.809 66.9096 243.163 66.4713 243.544 66.5067C243.926 66.542 244.181 67.0652 244.124 67.6237Z" fill="#263238"/>
<path d="M238.023 67.1288C237.966 67.7015 237.62 68.1327 237.245 68.0974C236.87 68.062 236.609 67.5601 236.658 66.9874C236.708 66.4147 237.061 65.9764 237.443 66.0117C237.825 66.0471 238.079 66.5491 238.023 67.1288Z" fill="#263238"/>
<path d="M243.389 73.9937C244.294 74.6583 246.867 74.227 247.044 73.2867C248.706 74.4179 247.348 76.1783 244.923 76.7156C242.498 77.2529 239.352 76.2702 238.659 75.3935L238.744 72.4878C240.582 72.1414 241.791 72.8342 243.389 73.9937Z" fill="#263238"/>
<path d="M235.28 73.2655C234.297 73.9159 233.661 73.4988 233.696 72.5585C232.155 73.4917 232.282 74.9623 234.085 75.7612C235.888 76.5601 237.973 76.1924 238.687 75.4077L238.857 72.5373C237.471 72.0141 236.764 72.2898 235.28 73.2655Z" fill="#263238"/>
<path d="M239.96 67.7722L239.536 72.608C239.536 72.608 237.655 72.8625 236.644 71.9434C237.354 70.2797 238.499 68.8385 239.96 67.7722Z" fill="#ED847E"/>
<path d="M246.196 65.9128C246.256 65.913 246.315 65.8958 246.365 65.8633C246.441 65.8153 246.495 65.7393 246.515 65.6518C246.534 65.5644 246.519 65.4727 246.471 65.3967C246.201 64.9289 245.822 64.5327 245.367 64.2412C244.912 63.9497 244.394 63.7714 243.856 63.7211C243.811 63.7192 243.767 63.7262 243.726 63.7416C243.684 63.757 243.646 63.7805 243.614 63.8108C243.582 63.8411 243.556 63.8776 243.538 63.918C243.52 63.9584 243.51 64.0021 243.509 64.0463C243.507 64.0909 243.514 64.1354 243.529 64.1773C243.545 64.2192 243.568 64.2577 243.598 64.2905C243.629 64.3233 243.665 64.3499 243.705 64.3686C243.746 64.3874 243.79 64.398 243.834 64.3998C244.26 64.4464 244.67 64.593 245.028 64.8277C245.387 65.0624 245.685 65.3784 245.899 65.7502C245.929 65.8014 245.973 65.8435 246.025 65.8721C246.077 65.9007 246.136 65.9148 246.196 65.9128Z" fill="#263238"/>
<path d="M234.877 65.0714C234.934 65.0758 234.991 65.0657 235.042 65.0423C235.094 65.0188 235.139 64.9826 235.174 64.9371C235.424 64.5948 235.754 64.3178 236.134 64.1295C236.514 63.9412 236.934 63.8472 237.358 63.8554C237.403 63.8593 237.448 63.8543 237.49 63.8407C237.533 63.8272 237.573 63.8053 237.607 63.7764C237.641 63.7475 237.669 63.7121 237.69 63.6723C237.71 63.6324 237.722 63.589 237.726 63.5443C237.732 63.4547 237.703 63.3662 237.645 63.2976C237.587 63.229 237.504 63.1857 237.415 63.1767C236.878 63.1604 236.345 63.274 235.861 63.5079C235.377 63.7417 234.957 64.0889 234.636 64.52C234.582 64.5905 234.557 64.6798 234.567 64.7685C234.578 64.8571 234.623 64.938 234.693 64.9937C234.746 65.0354 234.81 65.0623 234.877 65.0714Z" fill="#263238"/>
<path d="M285.101 145.492L289.343 143.837C294.13 143.795 293.126 149.96 293.126 149.96L293.833 153.12C293.924 153.684 293.811 154.263 293.514 154.751C293.217 155.24 292.756 155.606 292.214 155.786L289.251 156.966C288.659 157.246 287.98 157.283 287.36 157.069C286.741 156.855 286.229 156.407 285.936 155.821L284.868 153.205C284.559 152.444 284.443 151.618 284.529 150.801L285.101 145.492Z" fill="#FFC3BD"/>
<path d="M270.495 87.6245L271.421 88.3315L272.255 89.0385C272.8 89.4909 273.323 89.9505 273.846 90.41C274.892 91.3362 275.918 92.2694 276.922 93.238C278.929 95.1539 280.859 97.183 282.726 99.304C283.669 100.364 284.581 101.458 285.462 102.584C286.343 103.711 287.201 104.889 288.035 106.119C289.775 108.645 291.284 111.321 292.546 114.115L293.175 115.529L293.253 116.576C293.444 119.036 293.592 121.525 293.748 123.978L294.222 131.38C294.49 136.329 294.759 141.278 294.929 146.227L282.507 147.606C281.574 142.756 280.746 137.892 279.905 133.035L278.717 125.745C278.321 123.313 277.925 120.881 277.565 118.449L278.272 120.91C277.267 119.111 276.108 117.403 274.808 115.805C273.436 114.115 271.923 112.447 270.311 110.814C268.699 109.181 266.981 107.604 265.214 106.077C264.332 105.304 263.435 104.552 262.52 103.822L261.163 102.747L260.491 102.231L259.904 101.793L270.495 87.6245Z" fill="#FF4040"/>
<g opacity="0.7">
<path d="M270.495 87.6245L271.421 88.3315L272.255 89.0385C272.8 89.4909 273.323 89.9505 273.846 90.41C274.892 91.3362 275.918 92.2694 276.922 93.238C278.929 95.1539 280.859 97.183 282.726 99.304C283.669 100.364 284.581 101.458 285.462 102.584C286.343 103.711 287.201 104.889 288.035 106.119C289.775 108.645 291.284 111.321 292.546 114.115L293.175 115.529L293.253 116.576C293.444 119.036 293.592 121.525 293.748 123.978L294.222 131.38C294.49 136.329 294.759 141.278 294.929 146.227L282.507 147.606C281.574 142.756 280.746 137.892 279.905 133.035L278.717 125.745C278.321 123.313 277.925 120.881 277.565 118.449L278.272 120.91C277.267 119.111 276.108 117.403 274.808 115.805C273.436 114.115 271.923 112.447 270.311 110.814C268.699 109.181 266.981 107.604 265.214 106.077C264.332 105.304 263.435 104.552 262.52 103.822L261.163 102.747L260.491 102.231L259.904 101.793L270.495 87.6245Z" fill="white"/>
</g>
<path d="M252.629 82.7533C252.629 82.7533 248.387 88.8405 242.215 89.7031C244.709 90.7318 246.936 92.3155 248.727 94.3339C248.727 94.3339 255.09 89.3849 255.959 84.5349C255.344 82.7887 252.629 82.7533 252.629 82.7533Z" fill="#FF4040"/>
<path opacity="0.3" d="M242.067 202.928C241.985 202.929 241.905 202.901 241.842 202.85C241.778 202.798 241.735 202.725 241.72 202.645C231.964 154.52 237.747 105.222 237.804 104.727C237.809 104.68 237.824 104.635 237.847 104.595C237.87 104.554 237.9 104.518 237.937 104.489C237.974 104.46 238.016 104.439 238.061 104.426C238.106 104.414 238.153 104.41 238.2 104.416C238.246 104.421 238.291 104.436 238.332 104.459C238.372 104.482 238.408 104.512 238.437 104.549C238.466 104.586 238.487 104.628 238.5 104.673C238.513 104.718 238.516 104.765 238.511 104.811C238.454 105.306 232.685 154.492 242.42 202.504C242.437 202.595 242.418 202.69 242.367 202.768C242.315 202.845 242.236 202.9 242.145 202.921L242.067 202.928Z" fill="#FF4040"/>
<path d="M252.495 117.014H241.855C241.672 117.019 241.49 116.983 241.323 116.909C241.155 116.835 241.007 116.725 240.887 116.586C240.768 116.447 240.682 116.283 240.634 116.107C240.586 115.93 240.578 115.745 240.61 115.565L241.317 110.708C241.396 110.317 241.604 109.965 241.908 109.708C242.213 109.451 242.595 109.305 242.993 109.294H253.598C253.777 109.29 253.955 109.325 254.12 109.397C254.284 109.469 254.431 109.576 254.549 109.711C254.668 109.846 254.756 110.005 254.806 110.177C254.857 110.349 254.869 110.53 254.842 110.708L254.135 115.565C254.066 115.956 253.866 116.312 253.568 116.575C253.27 116.839 252.892 116.993 252.495 117.014Z" fill="white"/>
<path d="M248.727 110.446H247.574C247.528 110.448 247.481 110.439 247.438 110.421C247.395 110.402 247.357 110.374 247.327 110.339C247.296 110.304 247.274 110.262 247.262 110.217C247.25 110.172 247.248 110.124 247.256 110.079L247.687 107.194C247.704 107.093 247.755 107.001 247.833 106.933C247.91 106.866 248.009 106.828 248.112 106.826H249.264C249.311 106.825 249.357 106.833 249.4 106.852C249.443 106.87 249.481 106.898 249.512 106.934C249.542 106.969 249.564 107.011 249.577 107.056C249.589 107.101 249.591 107.148 249.582 107.194L249.151 110.079C249.134 110.18 249.083 110.272 249.005 110.339C248.928 110.406 248.829 110.444 248.727 110.446Z" fill="#FF4040"/>
<path d="M240.002 91.9088L237.068 89.7242L233.71 91.0605C233.71 91.0605 236.588 93.7753 240.002 91.9088Z" fill="#FF4040"/>
<path opacity="0.3" d="M240.002 91.9088L237.068 89.7242L233.71 91.0605C233.71 91.0605 236.588 93.7753 240.002 91.9088Z" fill="black"/>
<path d="M239.161 84.6905C239.161 84.6905 237.04 87.7023 237.04 89.7242C234.919 90.6999 231.709 93.4077 231.709 93.4077C231.709 93.4077 232.127 89.1657 236.376 85.4682C237.205 84.9341 238.175 84.6631 239.161 84.6905Z" fill="#FF4040"/>
<path d="M298.711 255.415L296.767 256.744L295.706 256.313L295.226 257.804L283.504 265.815C282.799 264.941 282.338 263.898 282.167 262.789C282.167 262.789 285.462 260.074 285.61 257.401C285.614 257.302 285.646 257.205 285.702 257.122C285.759 257.04 285.837 256.975 285.929 256.935C287.265 256.383 292.497 254.107 294.413 251.427C294.459 251.36 294.522 251.305 294.594 251.268C294.667 251.23 294.748 251.21 294.83 251.21C294.912 251.21 294.992 251.23 295.065 251.268C295.137 251.305 295.2 251.36 295.247 251.427C296.299 252.842 297.457 254.175 298.711 255.415Z" fill="#263238"/>
</svg>
